HIERARCHY
ROOT Hips
{
  OFFSET 0 0 0
  CHANNELS 6 Xposition Yposition Zposition Zrotation Yrotation Xrotation
  JOINT LeftThigh
  {
    OFFSET 8.409438 0 -5.917753
    CHANNELS 3 Zrotation Yrotation Xrotation
    JOINT LeftLeg
    {
      OFFSET 0 0 -42.358652
      CHANNELS 3 Zrotation Yrotation Xrotation
      JOINT LeftFoot
      {
        OFFSET 0 0 -39.357303
        CHANNELS 3 Zrotation Yrotation Xrotation
      }
    }
  }
  JOINT RightThigh
  {
    OFFSET -8.409438 0 -5.917753
    CHANNELS 3 Zrotation Yrotation Xrotation
    JOINT RightLeg
    {
      OFFSET 0 0 -42.358652
      CHANNELS 3 Zrotation Yrotation Xrotation
      JOINT RightFoot
      {
        OFFSET 0 0 -39.357303
        CHANNELS 3 Zrotation Yrotation Xrotation
      }
    }
  }
  JOINT SpineLow
  {
    OFFSET 0 0 4.719101
    CHANNELS 3 Zrotation Yrotation Xrotation
    JOINT SpineMid
    {
      OFFSET 0 0 12.899191
      CHANNELS 3 Zrotation Yrotation Xrotation
      JOINT Chest
      {
        OFFSET 0 0 12.899191
        CHANNELS 3 Zrotation Yrotation Xrotation
        JOINT LeftShoulder
        {
          OFFSET 7.550562 1.41573 9.438202
          CHANNELS 3 Zrotation Yrotation Xrotation
          JOINT LeftArm
          {
            OFFSET 9.155056 0 4.247191
            CHANNELS 3 Zrotation Yrotation Xrotation
            JOINT LeftForearm
            {
              OFFSET 0 0 25.771955
              CHANNELS 3 Zrotation Yrotation Xrotation
              JOINT LeftHand
              {
                OFFSET 0 0 25.197169
                CHANNELS 3 Zrotation Yrotation Xrotation
              }
            }
          }
        }
        JOINT RightShoulder
        {
          OFFSET -7.550562 1.41573 9.438202
          CHANNELS 3 Zrotation Yrotation Xrotation
          JOINT RightArm
          {
            OFFSET -9.155056 0 4.247191
            CHANNELS 3 Zrotation Yrotation Xrotation
            JOINT RightForearm
            {
              OFFSET 0 0 -25.771955
              CHANNELS 3 Zrotation Yrotation Xrotation
              JOINT RightHand
              {
                OFFSET 0 0 -25.197169
                CHANNELS 3 Zrotation Yrotation Xrotation
              }
            }
          }
        }
        JOINT Neck
        {
          OFFSET 0 0 15.101124
          CHANNELS 3 Zrotation Yrotation Xrotation
          JOINT Head
          {
            OFFSET 0 0 11.325843
            CHANNELS 3 Zrotation Yrotation Xrotation
            End Site
            {
              OFFSET 0 0 14.157303
            }
          }
        }
      }
    }
  }
}
MOTION
Frames: 7
Frame Time: 0.0
0.0  93.25843  0.0  -1.0622  9.685188  -86.740278  9.438306  -20.687779  -14.345262  -7.0431  4.344563  18.982129  6.022401  1.431126  4.711268  -34.731633  -2.131636  -22.106301  -5.117214  18.340946  29.991645  9.051762  4.75673  -1.53342  5.637369  0.673126  -0.839272  15.388077  2.02313  -2.124024  15.388076  2.02313  -2.124025  8.369209  16.147651  11.41764  164.12424  16.921363  174.019194  -17.051157  39.015892  96.179864  55.964534  -54.957445  -14.841445  19.774703  0.942795  16.653843  -174.956928  55.76135  168.252347  -43.431919  -1.171086  -138.037978  88.722657  22.784146  7.919763  -29.004155  -1.536168  5.650601  -21.739917  -1.424591  4.175894  
0.0  93.25843  0.0  -0.983295  9.28004  -86.84152  9.849218  -20.674338  -14.293211  -7.171776  4.500209  19.360288  6.180581  1.486509  4.798246  -33.284576  -1.833693  -21.947601  -5.352398  18.43587  30.121913  8.712467  4.574259  -1.554499  5.630853  0.658721  -0.79976  15.371828  1.974663  -2.020196  15.371828  1.974663  -2.020196  8.243659  16.127757  11.487799  164.464492  17.098001  174.243514  -17.040545  38.903151  96.088024  55.165978  -54.349591  -14.186189  19.825154  0.783743  16.593834  -174.189238  56.443897  169.226847  -43.726164  -1.007473  -137.514419  88.156333  22.658256  8.397884  -28.99588  -1.528137  5.33402  -21.734342  -1.403375  3.938231  
0.0  93.25843  0.0  -0.9719  8.669679  -86.995947  10.348985  -20.719988  -14.271448  -7.449401  4.685062  19.656944  6.200851  1.55009  4.767539  -32.592294  -1.881185  -21.999055  -5.107143  18.517491  30.357222  8.628585  4.566254  -1.522563  5.614904  0.634835  -0.771594  15.329595  1.902822  -1.949661  15.329595  1.902822  -1.949661  8.201179  16.153034  11.641247  164.500387  17.071922  174.326713  -17.037409  38.574569  96.043165  54.446119  -54.148953  -13.658805  19.787093  0.692815  16.554619  -173.563062  57.140739  169.859447  -44.1691  -0.773239  -137.020615  87.602988  22.502351  8.979266  -28.762811  -1.527959  5.158677  -21.559842  -1.39284  3.806807  
0.0  93.25843  0.0  -0.930739  8.013666  -87.12569  11.055197  -20.645111  -14.081462  -7.657686  4.787258  19.999098  5.971568  1.579689  4.506485  -31.996961  -1.939845  -22.088748  -4.794179  18.6037  30.575669  8.508041  4.528971  -1.47012  5.602836  0.612443  -0.738698  15.298029  1.834086  -1.865784  15.298029  1.834086  -1.865784  8.150867  16.174994  11.754233  164.464047  16.9963  174.422557  -17.007801  38.119242  96.026954  53.94006  -53.877839  -13.4675  19.991999  0.492243  16.543762  -173.576777  57.759223  170.166291  -44.695767  -0.393616  -136.454933  87.126541  22.276448  9.639344  -28.583657  -1.48899  4.979246  -21.426171  -1.353534  3.674057  
0.0  93.25843  0.0  -0.911491  7.235957  -87.269627  11.66407  -20.60737  -13.847618  -7.975544  4.872372  20.0366  6.005968  1.62174  4.460066  -31.37444  -2.037966  -22.187936  -4.560256  18.724259  30.777283  8.49063  4.567993  -1.424481  5.575926  0.580028  -0.712123  15.225845  1.73922  -1.801769  15.225847  1.73922  -1.801769  8.254861  16.211253  11.909914  164.367472  16.880192  174.549405  -16.931398  37.436326  96.134122  53.971881  -53.43664  -13.8948  19.964361  0.403603  16.524758  -173.695047  58.415409  170.001344  -45.352917  0.096916  -135.845459  86.770755  21.959713  10.300658  -28.256094  -1.466474  4.846251  -21.180939  -1.327659  3.575697  
0.0  93.25843  0.0  -0.888353  6.389947  -87.417733  12.146042  -20.550818  -13.531441  -7.900957  4.949736  20.227452  5.676361  1.65205  4.114286  -30.679429  -2.132155  -22.319232  -4.327659  18.88855  30.987277  8.438067  4.561309  -1.385661  5.510606  0.550891  -0.676407  15.048783  1.650286  -1.713118  15.048782  1.650286  -1.713117  8.597443  16.190131  11.962448  164.209385  16.698014  174.729908  -16.754904  36.500264  96.383108  54.712584  -52.667908  -15.059919  20.250118  0.235032  16.44513  -174.266802  59.108809  169.477733  -46.125237  0.733963  -135.145412  86.554711  21.538149  10.890721  -27.77449  -1.481062  4.686118  -20.819872  -1.327359  3.45549  
0.0  93.25843  0.0  -0.882694  5.396884  -87.592306  12.689831  -20.590784  -13.125237  -7.797997  4.995746  20.215208  5.674393  1.655041  4.046532  -29.809125  -2.226758  -22.433973  -4.081309  19.042534  31.185461  8.420615  4.54499  -1.327464  5.47161  0.517498  -0.626656  14.944028  1.547399  -1.586431  14.944026  1.547399  -1.586431  8.809061  16.19007  11.938411  164.043766  16.459066  174.984802  -16.449563  35.24532  96.825913  56.032183  -51.469503  -16.819292  20.285082  0.101853  16.246618  -175.130755  59.926589  168.495839  -47.018067  1.521901  -134.384195  86.407031  20.980159  11.379802  -27.350853  -1.515461  4.46152  -20.502237  -1.339757  3.285867  
